<?xml version="1.0" encoding="utf-8"?>
<!-- Generator: Adobe Illustrator 23.0.3, SVG Export Plug-In . SVG Version: 6.00 Build 0)  -->
<svg version="1.1" id="Camada_1" xmlns="http://www.w3.org/2000/svg" xmlns:xlink="http://www.w3.org/1999/xlink" x="0px" y="0px"
	 viewBox="0 0 54.9 50" style="enable-background:new 0 0 54.9 50;" xml:space="preserve">
<style type="text/css">
	.st0{fill:#EEEEEE;}
</style>
<g>
	<path class="st0" d="M88.6,31.8c0.5,0,1-0.4,1-1s-0.4-1-1-1s-1,0.4-1,1S88.1,31.8,88.6,31.8z"/>
	<path class="st0" d="M88.6,26c0.5,0,1-0.4,1-1s-0.4-1-1-1s-1,0.4-1,1S88.1,26,88.6,26z"/>
	<path class="st0" d="M88.6,37.7c0.5,0,1-0.4,1-1s-0.4-1-1-1s-1,0.4-1,1S88.1,37.7,88.6,37.7z"/>
	<path class="st0" d="M88.6,43.6c0.5,0,1-0.4,1-1s-0.4-1-1-1s-1,0.4-1,1S88.1,43.6,88.6,43.6z"/>
	<path class="st0" d="M96.1,18c0.5-0.7,0.8-1.5,0.8-2.4c0-1.4-0.8-2.7-2-3.4c0-0.3,0-0.5,0-0.5c0-1.8-1.2-2.8-2.2-3.7
		C91.5,7,90.2,5.9,90.2,3v0c0-1.6-1.3-2.9-2.9-2.9s-2.9,1.3-2.9,2.9c0,3-1.4,4.1-2.7,5.2c-1,0.9-2.2,1.8-2.2,3.6c0,0,0,0.3,0,0.5
		c-1.2,0.7-2,2-2,3.4c0,0.9,0.3,1.8,0.8,2.4c-1.7,0.8-2.8,2.5-2.8,4.4v7.1v7.8v7.7c0,2.7,2.2,4.9,4.9,4.9h13.7
		c2.7,0,4.9-2.2,4.9-4.9V22.5C98.9,20.5,97.8,18.8,96.1,18z M82.9,9.6c1.4-1.2,3.4-2.8,3.4-6.7c0-0.5,0.4-1,1-1s1,0.4,1,1v0
		c0,3.9,1.9,5.4,3.4,6.6c1,0.8,1.5,1.3,1.5,2.1H81.4C81.4,10.9,81.9,10.4,82.9,9.6z M81.4,13.7h11.7c1.1,0,2,0.9,2,2
		c0,1.1-0.9,2-2,2H81.4c-1.1,0-2-0.9-2-2C79.4,14.5,80.3,13.7,81.4,13.7z M97,24h-4.9c-0.5,0-1,0.4-1,1s0.4,1,1,1H97v3.9h-4.9
		c-0.5,0-1,0.4-1,1s0.4,1,1,1H97v3.9h-4.9c-0.5,0-1,0.4-1,1s0.4,1,1,1H97v3.9h-4.9c-0.5,0-1,0.4-1,1s0.4,1,1,1H97v1.6
		c0,1.6-1.3,2.9-2.9,2.9H80.4c-1.6,0-2.9-1.3-2.9-2.9v-7.7v-7.8v-7.1c0-1.6,1.3-2.9,2.9-2.9h13.7c1.6,0,2.9,1.3,2.9,2.9V24z"/>
</g>
<g>
	<path class="st0" d="M32.7,50c-0.3,0-0.6-0.1-0.8-0.3l-6.1-5.6H6.5c-3.6,0-6.5-2.9-6.5-6.4V22.3c0-3.5,2.9-6.4,6.5-6.4H21V6.4
		C21,2.9,24,0,27.5,0h21c1.7,0,3.3,0.7,4.5,1.9c1.2,1.2,1.9,2.8,1.9,4.5v15.5c0,3.5-2.9,6.4-6.4,6.4H30.8c-0.4,0-0.6,0-0.9,0
		c-0.1,0-0.2,0-0.3,0c-0.2,0-0.3,0-0.3,0l-0.1,0l0,0c-0.1,0.1-0.4,0.3-0.7,0.6c-0.1,0.1-0.1,0.1-0.2,0.2l-0.2,0.2l-5,4.6
		c-0.2,0.2-0.5,0.3-0.8,0.3c-0.2,0-0.3,0-0.5-0.1c-0.4-0.2-0.7-0.6-0.7-1.1V18.2H6.5c-2.3,0-4.1,1.8-4.1,4.1v15.5c0,2.2,1.9,4,4.1,4
		h19.9c0.3,0,0.5,0.1,0.8,0.3l4.5,4.1V32.7c0-0.6,0.5-1.2,1.2-1.2c0.6,0,1.2,0.5,1.2,1.2v16.2c0,0.5-0.3,0.9-0.7,1.1
		C33.1,50,32.9,50,32.7,50z M27.5,2.3c-2.3,0-4.2,1.8-4.2,4.1v23.9l3.1-2.8c0.1-0.1,0.1-0.1,0.2-0.2c0.1-0.1,0.1-0.1,0.2-0.2
		c1.2-1.1,1.5-1.3,2.8-1.3c0.1,0,0.2,0,0.3,0c0.2,0,0.5,0,0.8,0h17.8c2.2,0,4.1-1.8,4.1-4.1V6.4c0-2.3-1.8-4.1-4.1-4.1H27.5z
		 M14.8,30.8c-0.6,0-1.2-0.5-1.2-1.2c0-0.6,0.5-1.2,1.2-1.2h0.1c0.6,0,1.2,0.5,1.2,1.2c0,0.6-0.5,1.2-1.2,1.2H14.8z M10.1,30.8
		c-0.6,0-1.2-0.5-1.2-1.2c0-0.6,0.5-1.2,1.2-1.2h0.1c0.6,0,1.2,0.5,1.2,1.2c0,0.6-0.5,1.2-1.2,1.2H10.1z M37.7,21.3
		c-0.6,0-1.1-0.5-1.1-1.2c0-0.7,0.5-1.2,1.1-1.2c0.6,0,1.2,0.5,1.2,1.2C38.9,20.8,38.4,21.3,37.7,21.3z M37.7,17.3
		c-0.6,0-1.2-0.5-1.2-1.1c0-1.4,1-2.2,1.8-2.9l0,0c0.8-0.6,1.2-1,1.2-1.5c0-0.9-0.7-1.6-1.6-1.6c-0.9,0-1.6,0.7-1.6,1.6
		c0,0.6-0.5,1.2-1.2,1.2c-0.6,0-1.2-0.5-1.2-1.2c0-2.1,1.7-3.9,3.9-3.9c1,0,2,0.4,2.7,1.1c0.7,0.7,1.1,1.7,1.1,2.7
		c0,1.6-1.2,2.6-2,3.3l-0.1,0c-0.7,0.6-1,0.9-1,1.1c0,0.3-0.1,0.6-0.3,0.8C38.3,17.1,38,17.3,37.7,17.3L37.7,17.3z"/>
</g>
<g>
	<path class="st0" d="M161.5,33.8c-0.4-3.8-3.2-6.5-6.7-6.5c-1.9,0-3.8,1-5.2,2.9c-1.4-1.8-3.2-2.9-5.2-2.9c-3.5,0-6.3,2.7-6.7,6.5
		c0,0.2-0.1,1.1,0.2,2.5c0.5,2,1.7,3.8,3.3,5.3l8.3,7.1l8.3-7.1c1.7-1.4,2.8-3.3,3.3-5.3C161.7,34.9,161.6,34,161.5,33.8z
		 M159.4,35.8c-0.4,1.6-1.3,3.1-2.7,4.3l-7,6l-7-6c-1.4-1.2-2.3-2.6-2.7-4.3c-0.3-1.1-0.2-1.7-0.2-1.7l0-0.1
		c0.2-2.3,1.9-4.7,4.7-4.7c1.9,0,3.5,1.6,4.2,3.2l0.9,2.1l0.9-2.1c0.7-1.6,2.3-3.2,4.2-3.2c2.8,0,4.5,2.4,4.7,4.8
		C159.5,34.1,159.6,34.7,159.4,35.8z"/>
	<path class="st0" d="M161.4,33.8c-0.4-3.7-3.1-6.4-6.6-6.4c-2.2,0-4,1.3-5.2,2.9c-1.2-1.6-3-2.9-5.2-2.9c-3.5,0-6.2,2.7-6.6,6.4
		c0,0.2-0.1,1.1,0.2,2.5c0.5,2,1.6,3.8,3.3,5.2l8.3,7.1l8.3-7.1c1.7-1.4,2.8-3.2,3.3-5.2C161.6,34.9,161.5,34,161.4,33.8z
		 M159.5,35.8c-0.4,1.6-1.3,3.1-2.7,4.3l-7.1,6.1l-7.1-6.1c-1.4-1.2-2.3-2.7-2.7-4.3c-0.3-1.1-0.2-1.7-0.2-1.7l0-0.1
		c0.2-2.4,1.9-4.8,4.8-4.8c2,0,3.6,1.6,4.3,3.3l0.8,1.9l0.8-1.9c0.7-1.6,2.3-3.3,4.3-3.3c2.9,0,4.6,2.4,4.8,4.9
		C159.6,34.1,159.7,34.7,159.5,35.8z"/>
	<path class="st0" d="M135.7,10.9c-3.6,0-6.5,2.9-6.5,6.5s2.9,6.5,6.5,6.5c3.6,0,6.5-2.9,6.5-6.5S139.3,10.9,135.7,10.9z
		 M135.7,21.8c-2.5,0-4.4-2-4.4-4.4s2-4.4,4.4-4.4c2.5,0,4.4,2,4.4,4.4S138.2,21.8,135.7,21.8z"/>
	<path class="st0" d="M129.3,17.4c0,3.5,2.9,6.4,6.4,6.4c3.5,0,6.4-2.9,6.4-6.4s-2.9-6.4-6.4-6.4C132.2,11,129.3,13.9,129.3,17.4z
		 M140.3,17.4c0,2.5-2,4.5-4.5,4.5c-2.5,0-4.5-2-4.5-4.5s2-4.5,4.5-4.5C138.2,12.8,140.3,14.9,140.3,17.4z"/>
	<path class="st0" d="M147.9,5.1c-3.3-3.3-7.7-5.1-12.4-5.1c-4.7,0-9.1,1.8-12.4,5.1c-6.1,6.1-6.9,17.6-1.7,24.6l14,20.2l4.3-5.6
		c0.2-0.2,0.2-0.5,0.2-0.7c0-0.3-0.2-0.5-0.4-0.7c-0.2-0.1-0.4-0.2-0.6-0.2c-0.3,0-0.6,0.1-0.8,0.4l-2.6,3.4l-12.5-18
		c-4.7-6.3-4-16.6,1.4-22c2.9-2.9,6.8-4.5,11-4.5c4.1,0,8,1.6,11,4.5c4,4,5.6,10.8,3.9,16.9c-0.1,0.5,0.2,1.1,0.7,1.2
		c0.1,0,0.2,0,0.3,0c0.5,0,0.9-0.3,1-0.7C154.2,17.2,152.4,9.6,147.9,5.1z"/>
</g>
</svg>
