<svg id="Layer_1" height="512" viewBox="0 0 512 512" width="512" xmlns="http://www.w3.org/2000/svg" data-name="Layer 1"><path d="m351.31 165.73h14.69a10 10 0 0 1 10 10v30a10 10 0 0 1 -10 10h-220a10 10 0 0 1 -10-10v-30a10 10 0 0 1 10-10z" fill="#e48e66"/><path d="m356 215.73v249a19.994 19.994 0 0 1 -20 20h-160a19.994 19.994 0 0 1 -20-20v-249z" fill="#f8ec7d"/><path d="m351.31 150.67v15.06h-190.62v-15.06a33.133 33.133 0 0 1 33.13-33.13h20.92a16.57 16.57 0 0 0 16.21-20.05c-1.86-8.61-4.17-18.46-6.88-28.14a33.172 33.172 0 0 1 33.26-42.06 33.211 33.211 0 0 1 30.56 42.22c-2.74 9.61-5.06 19.41-6.9 27.99a16.566 16.566 0 0 0 16.21 20.04h20.98a33.133 33.133 0 0 1 33.13 33.13z" fill="#6fe3ff"/><g fill="#e48e66"><path d="m216 277.53h-59a7 7 0 0 1 0-14h59a7 7 0 0 1 0 14z"/><path d="m196 315.03h-39a7 7 0 0 1 0-14h39a7 7 0 0 1 0 14z"/><path d="m216 352.53h-59a7 7 0 0 1 0-14h59a7 7 0 0 1 0 14z"/><path d="m196 390.03h-39a7 7 0 0 1 0-14h39a7 7 0 0 1 0 14z"/><path d="m216 427.53h-59a7 7 0 0 1 0-14h59a7 7 0 0 1 0 14z"/></g></svg>